<svg xmlns="http://www.w3.org/2000/svg" width="1400" height="860" viewBox="0 0 1400 860">
  <defs>
    <style>
      .box { fill:#f8fafc; stroke:#0f172a; stroke-width:2; rx:14; ry:14; }
      .title { font: 700 24px 'Segoe UI', Arial, sans-serif; fill:#0f172a; }
      .label { font: 600 18px 'Segoe UI', Arial, sans-serif; fill:#0f172a; }
      .small { font: 500 15px 'Segoe UI', Arial, sans-serif; fill:#334155; }
      .arrow { stroke:#1e293b; stroke-width:3; fill:none; marker-end:url(#arrowhead); }
      .muted { fill:#eef2ff; }
      .accent { fill:#ecfeff; }
    </style>
    <marker id="arrowhead" markerWidth="10" markerHeight="7" refX="9" refY="3.5" orient="auto">
      <polygon points="0 0, 10 3.5, 0 7" fill="#1e293b" />
    </marker>
  </defs>

  <text x="700" y="48" text-anchor="middle" class="title">AI Agent Architecture (Reference Design)</text>

  <!-- Row 1 -->
  <rect class="box muted" x="90" y="100" width="260" height="90" />
  <text class="label" x="220" y="150" text-anchor="middle">User / Client</text>

  <rect class="box muted" x="470" y="100" width="300" height="90" />
  <text class="label" x="620" y="150" text-anchor="middle">Orchestrator</text>

  <!-- Planner -->
  <rect class="box" x="525" y="250" width="190" height="90" />
  <text class="label" x="620" y="305" text-anchor="middle">Planner Agent</text>

  <!-- Research + Executor -->
  <rect class="box accent" x="220" y="410" width="320" height="120" />
  <text class="label" x="380" y="462" text-anchor="middle">Research Agent</text>
  <text class="small" x="380" y="492" text-anchor="middle">(RAG, search, docs)</text>

  <rect class="box accent" x="700" y="410" width="320" height="120" />
  <text class="label" x="860" y="462" text-anchor="middle">Executor Agent</text>
  <text class="small" x="860" y="492" text-anchor="middle">(tool/API actions)</text>

  <!-- Memory + Tooling -->
  <rect class="box" x="220" y="610" width="320" height="120" />
  <text class="label" x="380" y="662" text-anchor="middle">Memory Layer</text>
  <text class="small" x="380" y="692" text-anchor="middle">(vector + structured)</text>

  <rect class="box" x="700" y="610" width="320" height="120" />
  <text class="label" x="860" y="662" text-anchor="middle">Tooling Layer</text>
  <text class="small" x="860" y="692" text-anchor="middle">(DB, APIs, GitHub, code runtime)</text>

  <!-- Safety -->
  <rect class="box muted" x="1050" y="610" width="260" height="120" />
  <text class="label" x="1180" y="662" text-anchor="middle">Reviewer / Safety</text>
  <text class="small" x="1180" y="692" text-anchor="middle">+ Observability</text>

  <!-- Arrows -->
  <path class="arrow" d="M350 145 L470 145" />
  <path class="arrow" d="M620 190 L620 250" />

  <path class="arrow" d="M620 340 L420 410" />
  <path class="arrow" d="M620 340 L820 410" />

  <path class="arrow" d="M380 530 L380 610" />
  <path class="arrow" d="M860 530 L860 610" />

  <path class="arrow" d="M540 670 L700 670" />
  <path class="arrow" d="M1020 670 L1050 670" />
</svg>
